<svg xmlns="http://www.w3.org/2000/svg" viewBox="0 0 130 94" width="130" height="94"><style>.i0{fill:#3A3A38}.i1{fill:#333331}.i2{fill:#2C2C2B}.i3{fill:#252524}.i4{fill:#1F1F1E}.i5{fill:#181817}.i6{fill:#111111}.i7{fill:#0A0A0A}.c0{fill:#5B7BFF}.c1{fill:#5272FC}.c2{fill:#4A6AF9}.c3{fill:#4161F6}.c4{fill:#3959F3}.c5{fill:#3050F0}.c6{fill:#2848ED}.c7{fill:#1F3FEA}.a0{fill:#FFCB6B}.a1{fill:#FCC35E}.a2{fill:#F8BB51}.a3{fill:#F5B344}.a4{fill:#F2AA36}.a5{fill:#EFA229}.a6{fill:#EB9A1C}.a7{fill:#E8920F}</style><rect class="i0" x="36" y="0" width="10" height="10"/><rect class="i0" x="48" y="0" width="10" height="10"/><rect class="i1" x="36" y="12" width="10" height="10"/><rect class="i1" x="48" y="12" width="10" height="10"/><rect class="i2" x="24" y="24" width="10" height="10"/><rect class="i2" x="36" y="24" width="10" height="10"/><rect class="i3" x="24" y="36" width="10" height="10"/><rect class="i3" x="36" y="36" width="10" height="10"/><rect class="i4" x="12" y="48" width="10" height="10"/><rect class="i4" x="24" y="48" width="10" height="10"/><rect class="i5" x="12" y="60" width="10" height="10"/><rect class="i5" x="24" y="60" width="10" height="10"/><rect class="i6" x="0" y="72" width="10" height="10"/><rect class="i6" x="12" y="72" width="10" height="10"/><rect class="i7" x="0" y="84" width="10" height="10"/><rect class="i7" x="12" y="84" width="10" height="10"/><rect class="c0" x="72" y="0" width="10" height="10"/><rect class="c0" x="84" y="0" width="10" height="10"/><rect class="c1" x="72" y="12" width="10" height="10"/><rect class="c1" x="84" y="12" width="10" height="10"/><rect class="c2" x="60" y="24" width="10" height="10"/><rect class="c2" x="72" y="24" width="10" height="10"/><rect class="c3" x="60" y="36" width="10" height="10"/><rect class="c3" x="72" y="36" width="10" height="10"/><rect class="c4" x="48" y="48" width="10" height="10"/><rect class="c4" x="60" y="48" width="10" height="10"/><rect class="c5" x="48" y="60" width="10" height="10"/><rect class="c5" x="60" y="60" width="10" height="10"/><rect class="c6" x="36" y="72" width="10" height="10"/><rect class="c6" x="48" y="72" width="10" height="10"/><rect class="c7" x="36" y="84" width="10" height="10"/><rect class="c7" x="48" y="84" width="10" height="10"/><rect class="a0" x="108" y="0" width="10" height="10"/><rect class="a0" x="120" y="0" width="10" height="10"/><rect class="a1" x="108" y="12" width="10" height="10"/><rect class="a1" x="120" y="12" width="10" height="10"/><rect class="a2" x="96" y="24" width="10" height="10"/><rect class="a2" x="108" y="24" width="10" height="10"/><rect class="a3" x="96" y="36" width="10" height="10"/><rect class="a3" x="108" y="36" width="10" height="10"/><rect class="a4" x="84" y="48" width="10" height="10"/><rect class="a4" x="96" y="48" width="10" height="10"/><rect class="a5" x="84" y="60" width="10" height="10"/><rect class="a5" x="96" y="60" width="10" height="10"/><rect class="a6" x="72" y="72" width="10" height="10"/><rect class="a6" x="84" y="72" width="10" height="10"/><rect class="a7" x="72" y="84" width="10" height="10"/><rect class="a7" x="84" y="84" width="10" height="10"/></svg>