<svg xmlns="http://www.w3.org/2000/svg" viewBox="0 0 512 512"><rect width="512" height="512" rx="112" fill="#0A0A0A"/><g transform="translate(76.80 126.42) scale(2.7569)"><rect x="36" y="0" width="10" height="10" fill="#FFFFFF"/><rect x="48" y="0" width="10" height="10" fill="#FFFFFF"/><rect x="36" y="12" width="10" height="10" fill="#F7F7F6"/><rect x="48" y="12" width="10" height="10" fill="#F7F7F6"/><rect x="24" y="24" width="10" height="10" fill="#EEEEEC"/><rect x="36" y="24" width="10" height="10" fill="#EEEEEC"/><rect x="24" y="36" width="10" height="10" fill="#E6E6E3"/><rect x="36" y="36" width="10" height="10" fill="#E6E6E3"/><rect x="12" y="48" width="10" height="10" fill="#DDDDDA"/><rect x="24" y="48" width="10" height="10" fill="#DDDDDA"/><rect x="12" y="60" width="10" height="10" fill="#D5D5D1"/><rect x="24" y="60" width="10" height="10" fill="#D5D5D1"/><rect x="0" y="72" width="10" height="10" fill="#CCCCC7"/><rect x="12" y="72" width="10" height="10" fill="#CCCCC7"/><rect x="0" y="84" width="10" height="10" fill="#C4C4BE"/><rect x="12" y="84" width="10" height="10" fill="#C4C4BE"/><rect x="72" y="0" width="10" height="10" fill="#A3B4FF"/><rect x="84" y="0" width="10" height="10" fill="#A3B4FF"/><rect x="72" y="12" width="10" height="10" fill="#99ACFF"/><rect x="84" y="12" width="10" height="10" fill="#99ACFF"/><rect x="60" y="24" width="10" height="10" fill="#8EA4FF"/><rect x="72" y="24" width="10" height="10" fill="#8EA4FF"/><rect x="60" y="36" width="10" height="10" fill="#849CFF"/><rect x="72" y="36" width="10" height="10" fill="#849CFF"/><rect x="48" y="48" width="10" height="10" fill="#7A93FF"/><rect x="60" y="48" width="10" height="10" fill="#7A93FF"/><rect x="48" y="60" width="10" height="10" fill="#708BFF"/><rect x="60" y="60" width="10" height="10" fill="#708BFF"/><rect x="36" y="72" width="10" height="10" fill="#6583FF"/><rect x="48" y="72" width="10" height="10" fill="#6583FF"/><rect x="36" y="84" width="10" height="10" fill="#5B7BFF"/><rect x="48" y="84" width="10" height="10" fill="#5B7BFF"/><rect x="108" y="0" width="10" height="10" fill="#FFD582"/><rect x="120" y="0" width="10" height="10" fill="#FFD582"/><rect x="108" y="12" width="10" height="10" fill="#FDCF78"/><rect x="120" y="12" width="10" height="10" fill="#FDCF78"/><rect x="96" y="24" width="10" height="10" fill="#FBC86E"/><rect x="108" y="24" width="10" height="10" fill="#FBC86E"/><rect x="96" y="36" width="10" height="10" fill="#F9C264"/><rect x="108" y="36" width="10" height="10" fill="#F9C264"/><rect x="84" y="48" width="10" height="10" fill="#F8BC59"/><rect x="96" y="48" width="10" height="10" fill="#F8BC59"/><rect x="84" y="60" width="10" height="10" fill="#F6B64F"/><rect x="96" y="60" width="10" height="10" fill="#F6B64F"/><rect x="72" y="72" width="10" height="10" fill="#F4AF45"/><rect x="84" y="72" width="10" height="10" fill="#F4AF45"/><rect x="72" y="84" width="10" height="10" fill="#F2A93B"/><rect x="84" y="84" width="10" height="10" fill="#F2A93B"/></g></svg>